<svg data-v-fde0c5aa="" xmlns="http://www.w3.org/2000/svg" viewBox="0 0 300 300" class="iconAbove"><!----><defs data-v-fde0c5aa=""><!----></defs><rect data-v-fde0c5aa="" fill="#353922" x="0" y="0" width="300px" height="300px" class="logo-background-square"></rect><defs data-v-fde0c5aa=""><!----></defs><g data-v-fde0c5aa="" id="75a6e771-c06b-4c45-857a-5c7666f31ea5" fill="#FFFFFF" transform="matrix(4.752330549275975,0,0,4.752330549275975,13.204166997283064,183.61707142945795)"><path d="M7.66 0.57L7.66 5.01L2.35 5.01L2.35 0.57L1.43 0.57L1.43 10.22L2.35 10.22L2.35 5.84L7.66 5.84L7.66 10.22L8.58 10.22L8.58 0.57ZM11.58 1.90C11.97 1.90 12.28 1.64 12.28 1.27C12.28 0.90 11.97 0.63 11.58 0.63C11.21 0.63 10.89 0.90 10.89 1.27C10.89 1.64 11.21 1.90 11.58 1.90ZM11.13 10.22L12.03 10.22L12.03 3.68L11.13 3.68ZM17.28 10.35C18.21 10.35 19.04 10.01 19.63 9.45L19.07 8.85C18.62 9.25 18.00 9.49 17.30 9.49C15.88 9.49 14.71 8.47 14.71 6.94C14.71 5.40 15.88 4.40 17.30 4.40C18.00 4.40 18.62 4.65 19.07 5.05L19.63 4.44C19.04 3.89 18.21 3.54 17.28 3.54C15.41 3.54 13.82 4.87 13.82 6.94C13.82 9.02 15.41 10.35 17.28 10.35ZM26.70 10.22L23.07 6.52L25.87 3.68L24.63 3.68L22.18 6.19L22.18 0L21.28 0L21.28 10.22L22.18 10.22L22.18 6.86L25.48 10.22ZM32.90 0.57L25.83 0.57L25.83 1.44L28.90 1.44L28.90 10.22L29.82 10.22L29.82 1.44L32.90 1.44ZM34.76 1.90C35.15 1.90 35.46 1.64 35.46 1.27C35.46 0.90 35.15 0.63 34.76 0.63C34.40 0.63 34.08 0.90 34.08 1.27C34.08 1.64 34.40 1.90 34.76 1.90ZM34.31 10.22L35.21 10.22L35.21 3.68L34.31 3.68ZM45.29 3.54C44.49 3.54 43.36 3.81 42.88 5.11C42.52 4.10 41.65 3.54 40.59 3.54C39.62 3.54 38.68 3.99 38.35 4.86L38.35 3.68L37.45 3.68L37.45 10.22L38.35 10.22L38.35 6.59C38.37 5.03 39.38 4.41 40.43 4.41C41.47 4.41 42.22 5.18 42.22 6.45L42.22 10.22L43.11 10.22L43.11 6.83L43.12 6.89C43.02 5.29 43.92 4.40 45.15 4.41C46.23 4.41 46.98 5.19 46.98 6.45L46.98 10.22L47.88 10.22L47.88 6.41C47.88 4.61 46.87 3.54 45.29 3.54ZM56.14 6.93C56.14 4.86 54.78 3.54 52.92 3.54C51.07 3.54 49.59 4.86 49.59 6.93C49.59 9.00 51.07 10.36 52.92 10.36C54.15 10.36 55.27 9.77 55.85 8.72L55.08 8.39C54.64 9.10 53.84 9.51 52.95 9.51C51.63 9.51 50.65 8.72 50.50 7.32L56.13 7.32C56.14 7.20 56.14 7.06 56.14 6.93ZM50.51 6.55C50.68 5.15 51.63 4.40 52.92 4.40C54.19 4.40 55.13 5.19 55.26 6.55Z"></path></g><defs data-v-fde0c5aa=""><!----></defs><g data-v-fde0c5aa="" id="bddc9ec2-cd58-48c6-b4c2-b350d2cf55aa" stroke="none" fill="#98D82C" transform="matrix(1.082069073822327,0,0,1.082069073822327,95.8965297978199,62.279474879425706)"><path d="M50 4.5C24.911 4.5 4.5 24.911 4.5 50c0 4.094.541 8.135 1.607 12.012C11.488 81.729 29.538 95.5 50 95.5a45.292 45.292 0 0019.83-4.565c11.544-5.605 20.531-15.984 24.062-28.923A45.269 45.269 0 0095.5 50C95.5 24.911 75.089 4.5 50 4.5zM38.753 6.943c1.882 2.35 2.596 5.359 1.948 8.287-1.174 5.305-6.444 8.67-11.752 7.498a9.863 9.863 0 01-7.34-6.875c-.007-.023-.023-.041-.033-.062a44.412 44.412 0 0117.177-8.848zm53.805 56.055c-.077.255-.153.51-.235.762-.11.34-.228.677-.346 1.012-.085.243-.169.486-.258.728-.126.338-.259.673-.393 1.007-.093.232-.184.465-.28.695-.142.338-.29.671-.439 1.004-.099.221-.196.441-.298.66-.157.336-.322.667-.488.998-.104.21-.207.42-.314.628-.174.335-.355.665-.538.994-.108.196-.215.395-.325.589-.192.335-.393.665-.593.994-.11.183-.219.367-.333.548-.209.333-.426.661-.645.988-.113.171-.224.343-.339.511-.229.333-.465.66-.702.986-.113.155-.224.312-.338.467-.249.332-.505.658-.762.983-.111.142-.221.284-.334.425-.27.331-.546.656-.824.979-.108.126-.215.255-.325.38-.292.332-.591.656-.893.979-.103.11-.203.223-.307.331-.315.33-.638.653-.962.974-.097.096-.191.193-.29.288-.339.33-.687.65-1.036.969-.088.08-.173.162-.261.241-.368.329-.744.649-1.122.967-.074.062-.147.127-.222.188-.399.33-.806.65-1.216.967-.058.044-.114.091-.173.135-.431.329-.869.648-1.312.961l-.119.086c-.468.329-.943.647-1.424.958l-.047.031A44.41 44.41 0 0150 94.5c-15.633 0-29.825-8.218-37.797-21.007a42.784 42.784 0 01-.918-1.542c-.016-.027-.03-.055-.045-.082-.28-.494-.551-.994-.812-1.5l-.073-.146a43.04 43.04 0 01-.722-1.479c-.032-.067-.062-.137-.093-.205a42.862 42.862 0 01-.638-1.453l-.11-.275c-.191-.47-.377-.943-.554-1.422-.042-.113-.08-.228-.121-.341a46.31 46.31 0 01-.475-1.389c-.045-.139-.086-.28-.13-.42-.097-.312-.188-.628-.279-.943 4.527-.712 9.149-1.3 13.749-1.774.088-.01.175-.014.263-.022h1.594a.49.49 0 00.368-.169c6.094-.589 12.331-.932 18.563-1.106l-8.368 13.512a.498.498 0 00.425.764H46.34V82a.5.5 0 00.5.5h7a.5.5 0 00.5-.5v-8.5h12.542a.5.5 0 00.343-.864l-8.356-13.491c5.912.187 11.804.555 17.545 1.101.086.149.24.254.426.254h2.188c4.596.473 9.215 1.076 13.741 1.788-.069.237-.139.475-.211.71zM18.565 44.746a.5.5 0 00-.431-.246h-3.209l5.254-8.801 5.254 8.801h-3.209a.5.5 0 00-.437.744L27.509 55.5H22.84a.5.5 0 00-.5.5v3.5h-.641a5.088 5.088 0 00-.771 0H18.34V56a.5.5 0 00-.5-.5h-4.988l5.72-10.256a.503.503 0 00-.007-.498zm24.683 13.993l3.392-5.476a.498.498 0 00-.425-.764h-7.376l11.506-19.274L61.852 52.5h-7.377a.498.498 0 00-.425.764l3.423 5.527c.004.008.011.014.014.021L65.965 72.5H53.84a.5.5 0 00-.5.5v8.5h-6V73a.5.5 0 00-.5-.5H34.726l8.268-13.349c.161-.057.271-.174.267-.369-.001-.018-.01-.026-.013-.043zm34.958-13.993a.5.5 0 00-.431-.246h-3.209l5.254-8.801 5.254 8.801h-3.209a.5.5 0 00-.437.744l5.72 10.256H81.84a.5.5 0 00-.5.5v3.5h-2.245c-.585-.063-1.17-.12-1.755-.173V56a.5.5 0 00-.5-.5h-4.349l5.721-10.256a.5.5 0 00-.006-.498zM93.03 61.32a259.51 259.51 0 00-10.69-1.44V56.5h5.68a.5.5 0 00.358-.85L82.717 45.5h3.258a.5.5 0 00.349-.859L80.25 34.468c-.182-.302-.678-.302-.859 0l-6.135 10.276a.5.5 0 00.43.756h3.238l-5.721 10.256a.5.5 0 00.437.744h4.7v2.734a279.508 279.508 0 00-18.106-1.115L55.372 53.5h7.38a.5.5 0 00.349-.859L50.774 31.994c-.182-.303-.678-.303-.859 0l-12.387 20.75a.5.5 0 00.43.756h7.359l-3.102 5.007c-6.335.019-12.679.369-18.876.963V56.5H28.38a.5.5 0 00.358-.85L23.076 45.5h3.258a.5.5 0 00.349-.859L20.61 34.468c-.182-.302-.678-.302-.859 0l-6.135 10.276a.5.5 0 00.43.756h3.238l-5.72 10.256A.5.5 0 0012 56.5h5.34v3.417A259.65 259.65 0 006.971 61.32 44.284 44.284 0 015.5 50c0-13.359 5.926-25.353 15.276-33.517a10.852 10.852 0 007.958 7.222c.785.173 1.57.256 2.343.256 4.981 0 9.482-3.455 10.601-8.516.68-3.073-.013-6.225-1.872-8.753A44.438 44.438 0 0150 5.5c24.537 0 44.5 19.963 44.5 44.5 0 3.854-.503 7.659-1.47 11.32zM20.1 21.762l-4.242 4.243a.5.5 0 00.708.707l4.242-4.243a.5.5 0 00-.708-.707zM49.34 8.5h6a.5.5 0 000-1h-6a.5.5 0 000 1zM28.562 25.654a.503.503 0 00-.586.396l-1.722 8.947a.502.502 0 00.492.594.5.5 0 00.49-.405l1.722-8.946a.501.501 0 00-.396-.586zm36.641-.33L44.17 16.697a.5.5 0 00-.379.924l21.033 8.628a.502.502 0 00.652-.274.499.499 0 00-.273-.651zM44.34 8.5h2a.5.5 0 000-1h-2a.5.5 0 000 1zM23.519 25.01l-1.002 1.496a.499.499 0 10.83.556l1.002-1.496a.499.499 0 10-.83-.556zm10.62 1.463c-.275.019-.484.29-.466.565l.12 1.862c.018.264.237.6.498.6h.034c.275 0 .484-.382.466-.657l-.12-1.921c-.018-.276-.276-.453-.532-.449zm13.503-12.757l1.752.415a.498.498 0 00.601-.371.5.5 0 00-.371-.602l-1.752-.415a.501.501 0 00-.23.973zm-3.885 7.796a.5.5 0 00-.572.82l4.924 3.43a.501.501 0 00.572-.82l-4.924-3.43zm-4.89 2.152a.5.5 0 00-.707.707l4.243 4.242a.498.498 0 00.708 0 .5.5 0 000-.707l-4.244-4.242zm6.363 6.363a.5.5 0 00-.707.708l1.274 1.272a.498.498 0 00.708 0 .5.5 0 000-.707l-1.275-1.273z"></path></g><!----></svg>